<svg xmlns="http://www.w3.org/2000/svg" viewBox="0 0 200 200" width="200" height="200">
  <defs>
    <clipPath id="kome-body">
      <path d="M100 20c9 14 22 32 30 50 6 14 9 27 9 40 0 33-17 54-39 54s-39-21-39-54c0-13 3-26 9-40 8-18 21-36 30-50z"/>
    </clipPath>
  </defs>
  <path d="M100 20c9 14 22 32 30 50 6 14 9 27 9 40 0 33-17 54-39 54s-39-21-39-54c0-13 3-26 9-40 8-18 21-36 30-50z" fill="#f7f4ec"/>
  <g clip-path="url(#kome-body)"><path d="M52 118h96v82H52z" fill="#dd9a3f"/></g>
  <ellipse cx="85" cy="100" rx="7.5" ry="9.5" fill="#232830"/>
  <ellipse cx="115" cy="100" rx="7.5" ry="9.5" fill="#232830"/>
  <path d="M92 118q8 8 16 0" stroke="#232830" stroke-width="3.6" stroke-linecap="round" fill="none"/>
</svg>
